<?xml version="1.0" encoding="UTF-8"?>
<svg xmlns="http://www.w3.org/2000/svg" xmlns:xlink="http://www.w3.org/1999/xlink" width="368.7pt" height="133.4pt" viewBox="0 0 368.7 133.4" version="1.1">
<defs>
<clipPath id="clip1">
  <path d="M 0 102 L 368.699219 102 L 368.699219 133 L 0 133 Z M 0 102 "/>
</clipPath>
</defs>
<g id="surface1">
<g clip-path="url(#clip1)" clip-rule="nonzero">
<path style=" stroke:none;fill-rule:evenodd;fill:rgb(8.227539%,8.616638%,8.616638%);fill-opacity:1;" d="M 329.199219 117.492188 C 326.671875 116.863281 324.816406 116.089844 323.621094 115.167969 C 322.425781 114.242188 321.832031 113.125 321.832031 111.816406 C 321.832031 109.320313 323.835938 107.351563 327.855469 105.90625 C 331.878906 104.464844 337.402344 103.742188 344.449219 103.742188 C 351.457031 103.742188 356.96875 104.464844 360.988281 105.90625 C 365.007813 107.351563 367.011719 109.320313 367.011719 111.816406 C 367.011719 113.125 366.421875 114.242188 365.226563 115.167969 C 364.027344 116.089844 362.1875 116.863281 359.683594 117.492188 C 362.761719 118.097656 365.050781 118.925781 366.542969 119.984375 C 368.035156 121.042969 368.789063 122.355469 368.789063 123.925781 C 368.789063 126.757813 366.664063 128.953125 362.425781 130.503906 C 358.179688 132.058594 352.195313 132.835938 344.449219 132.835938 C 336.664063 132.835938 330.667969 132.058594 326.417969 130.503906 C 322.183594 128.953125 320.058594 126.757813 320.058594 123.925781 C 320.058594 122.355469 320.8125 121.042969 322.304688 119.984375 C 323.796875 118.925781 326.09375 118.097656 329.199219 117.492188 Z M 0.0117188 132.125 L 16.921875 103.78125 L 37.039063 103.78125 L 54.136719 132.125 L 37.386719 132.125 L 35.414063 128.378906 L 18.664063 128.378906 L 16.625 132.125 Z M 21.734375 122.429688 L 32.339844 122.429688 L 27.097656 112.613281 Z M 54.683594 132.125 L 54.683594 103.78125 L 83.925781 103.78125 C 89.714844 103.78125 102.914063 103.066406 102.914063 111.660156 C 102.914063 116.148438 100.070313 117.242188 96.339844 118.105469 C 100.445313 118.566406 101.511719 120.503906 101.863281 125.253906 L 102.15625 129.203125 C 102.15625 129.226563 102.167969 129.261719 102.179688 129.292969 C 102.253906 130.421875 102.765625 131.015625 103.691406 131.066406 L 103.691406 132.125 L 86.636719 132.125 C 86.320313 131.441406 86.089844 130.851563 85.929688 130.34375 C 85.769531 129.839844 85.699219 129.445313 85.699219 129.160156 L 85.699219 126.332031 C 85.699219 123.367188 81.550781 123.285156 78.53125 123.285156 L 70.613281 123.285156 L 70.613281 132.125 Z M 70.589844 115.964844 L 79.03125 115.964844 C 81.722656 115.964844 83.578125 115.761719 84.601563 115.371094 C 85.625 114.980469 86.136719 114.300781 86.136719 113.320313 C 86.136719 112.316406 85.625 111.621094 84.601563 111.234375 C 83.578125 110.84375 81.578125 110.640625 78.601563 110.640625 L 70.589844 110.640625 Z M 150.089844 132.3125 L 148.597656 129.6875 C 144.832031 133.371094 132.15625 132.914063 127.996094 132.914063 C 120.460938 132.914063 114.539063 131.578125 110.199219 128.917969 C 105.871094 126.257813 103.699219 122.605469 103.699219 117.972656 C 103.699219 113.238281 106.113281 109.5625 110.953125 106.949219 C 115.78125 104.339844 122.558594 103.035156 131.277344 103.035156 C 138.980469 103.035156 155.160156 104.425781 157.289063 113.558594 L 139.320313 113.558594 C 137.699219 110.714844 133.882813 110.089844 130.851563 110.089844 C 125.03125 110.089844 120.273438 112.171875 120.273438 118.441406 C 120.273438 124.574219 125.589844 126.09375 130.996094 126.09375 C 133.6875 126.09375 139.351563 125.570313 140.503906 122.664063 L 134.460938 122.664063 L 134.460938 116.03125 L 157.050781 116.03125 L 157.050781 132.125 Z M 175.675781 117.75 C 175.675781 120.515625 176.507813 122.539063 178.175781 123.835938 C 179.847656 125.128906 182.457031 125.777344 186.003906 125.777344 C 189.539063 125.777344 192.125 125.136719 193.769531 123.84375 C 195.414063 122.558594 196.230469 120.527344 196.230469 117.75 C 196.230469 114.960938 195.414063 112.925781 193.769531 111.640625 C 192.125 110.347656 189.539063 109.707031 186.003906 109.707031 C 182.457031 109.707031 179.847656 110.355469 178.175781 111.648438 C 176.507813 112.945313 175.675781 114.976563 175.675781 117.75 Z M 158.636719 117.972656 C 158.636719 105.363281 170.265625 102.558594 186.117188 102.558594 C 201.96875 102.558594 213.273438 105.378906 213.273438 117.972656 C 213.273438 130.554688 201.007813 132.914063 185.992188 132.914063 C 170.976563 132.914063 158.636719 130.570313 158.636719 117.972656 Z M 215.035156 132.125 L 215.035156 103.78125 L 233.378906 103.78125 L 249.621094 119.984375 L 249.511719 103.78125 L 264.554688 103.78125 L 264.554688 132.125 L 247.113281 132.125 L 230.304688 116.210938 L 230.414063 132.125 Z M 302.730469 132.125 L 302.730469 111.074219 L 288.496094 117.355469 L 280.621094 113.003906 L 300.148438 104.492188 L 316.777344 104.492188 L 316.777344 132.125 Z M 337.160156 112.335938 C 337.160156 113.296875 337.792969 114.042969 339.070313 114.578125 C 340.347656 115.109375 342.136719 115.371094 344.4375 115.371094 C 346.722656 115.371094 348.484375 115.109375 349.734375 114.578125 C 350.984375 114.042969 351.601563 113.296875 351.601563 112.335938 C 351.601563 111.507813 350.929688 110.820313 349.601563 110.273438 C 348.253906 109.726563 346.535156 109.457031 344.4375 109.457031 C 342.3125 109.457031 340.578125 109.726563 339.207031 110.273438 C 337.847656 110.820313 337.160156 111.507813 337.160156 112.335938 Z M 336.679688 123.441406 C 336.679688 124.515625 337.347656 125.351563 338.707031 125.949219 C 340.066406 126.546875 341.976563 126.84375 344.449219 126.84375 C 346.910156 126.84375 348.820313 126.546875 350.164063 125.949219 C 351.496094 125.351563 352.167969 124.515625 352.167969 123.441406 C 352.167969 122.34375 351.480469 121.476563 350.125 120.84375 C 348.753906 120.21875 346.855469 119.90625 344.449219 119.90625 C 342.003906 119.90625 340.09375 120.21875 338.722656 120.84375 C 337.363281 121.476563 336.679688 122.34375 336.679688 123.441406 Z M 336.679688 123.441406 "/>
</g>
<path style=" stroke:none;fill-rule:evenodd;fill:rgb(86.71875%,16.868591%,10.984802%);fill-opacity:1;" d="M 148.261719 63.394531 L 221.011719 63.394531 L 221.011719 -0.0703125 L 148.261719 -0.0703125 Z M 148.261719 63.394531 "/>
<path style=" stroke:none;fill-rule:evenodd;fill:rgb(100%,100%,100%);fill-opacity:1;" d="M 167.386719 10.445313 C 169.746094 10.445313 171.660156 12.359375 171.660156 14.71875 C 171.660156 16.058594 171.042969 17.253906 170.082031 18.035156 L 172.113281 23.21875 C 172.863281 22.914063 173.6875 22.746094 174.546875 22.746094 C 178.128906 22.746094 181.035156 25.648438 181.035156 29.234375 C 181.035156 30.402344 180.726563 31.5 180.183594 32.449219 L 180.894531 32.957031 C 181.710938 31.816406 183.046875 31.070313 184.558594 31.070313 C 186.871094 31.070313 188.777344 32.816406 189.03125 35.058594 L 197.238281 33.179688 C 197.238281 33.113281 197.234375 33.050781 197.234375 32.984375 C 197.234375 29.398438 200.140625 26.496094 203.722656 26.496094 C 207.304688 26.496094 210.210938 29.398438 210.210938 32.984375 C 210.210938 36.566406 207.304688 39.46875 203.722656 39.46875 C 201.148438 39.46875 198.921875 37.96875 197.875 35.792969 L 188.785156 37.121094 C 188.152344 38.84375 186.5 40.070313 184.558594 40.070313 C 182.074219 40.070313 180.058594 38.054688 180.058594 35.570313 C 180.058594 35.238281 180.097656 34.917969 180.164063 34.609375 L 179.179688 33.777344 C 178 34.976563 176.363281 35.71875 174.546875 35.71875 C 173.816406 35.71875 173.113281 35.597656 172.457031 35.375 L 169.113281 41.335938 C 170.402344 42.519531 171.210938 44.21875 171.210938 46.109375 C 171.210938 49.691406 168.304688 52.59375 164.722656 52.59375 C 161.140625 52.59375 158.234375 49.691406 158.234375 46.109375 C 158.234375 42.523438 161.140625 39.621094 164.722656 39.621094 C 165.335938 39.621094 165.933594 39.707031 166.496094 39.867188 L 170.328125 34.160156 C 168.941406 32.96875 168.058594 31.203125 168.058594 29.234375 C 168.058594 27.03125 169.15625 25.089844 170.832031 23.917969 L 168.378906 18.878906 C 168.058594 18.957031 167.726563 18.996094 167.386719 18.996094 C 165.023438 18.996094 163.109375 17.082031 163.109375 14.71875 C 163.109375 12.359375 165.023438 10.445313 167.386719 10.445313 Z M 167.386719 10.445313 "/>
</g>
</svg>
